<svg version="1.1"
	 xmlns="http://www.w3.org/2000/svg" xmlns:xlink="http://www.w3.org/1999/xlink" xmlns:a="http://ns.adobe.com/AdobeSVGViewerExtensions/3.0/"
	 x="0px" y="0px" width="491.5px" height="491.5px" viewBox="0 0 491.5 491.5" style="enable-background:new 0 0 491.5 491.5;"
	 xml:space="preserve">
<style type="text/css">
	.st0{fill:#EA5B0C;}
	.st1{opacity:0.1;fill:#010202;enable-background:new    ;}
	.st2{fill:#E1E6E9;}
	.st3{fill:#706F6F;}
	.st4{fill:#9D9D9C;}
	.st5{fill:#3C3C3B;}
	.st6{fill:#575756;}
	.st7{fill:#EBF0F3;}
</style>
<defs>
</defs>
<circle class="st0" cx="245.8" cy="245.8" r="245.8"/>
<path class="st1" d="M362.4,161.2c0,0-0.1,0-0.1,0L191.1,162l-40-40c-3.3-3.4-7.9-5.4-13-5.4h-1.4l-2.6-2.6h-21.6
	c-4.2,0-7.7,3.4-7.7,7.7c0,2.5,1.2,4.7,3,6l50.1,50.1l24.9,92.7c1.2,4.4,3.7,8,7.2,10.6l42.2,42.2h-45.7v10.2l15.2,15.2
	c-2.3,3-3.7,6.8-3.7,10.9c0,4.8,1.8,9,4.9,12.2l110.1,110.1c92.4-26.3,162.5-105.2,176-202.3l-111-111
	C374.3,164,368.6,161.2,362.4,161.2z"/>
<path class="st2" d="M378.1,168.8c-3.8-4.8-9.5-7.6-15.7-7.6c0,0-0.1,0-0.1,0l-201.9,0.9l0,10.2l41.7-0.2v27.4h-33.6v10.2h33.6V240
	h-20.9v10.2h20.9V280h10.2v-29.8h31.4V280H254v-29.8h31.4V280h10.2v-29.8H327V280h10.2v-29.8h18.2l-7.1,28.6l9.9,2.5l23.5-95.3
	C383.3,180,382,173.7,378.1,168.8z M362.4,171.5c3.1,0.2,5.8,1.3,7.7,3.7c1.9,2.4,2.5,5.4,1.8,8.3l-4,16.1h-30.7v-28.1L362.4,171.5z
	 M295.6,171.8l31.4-0.1v28h-31.4V171.8z M285.4,199.6H254V172l31.4-0.1V199.6z M212.4,172.1l31.4-0.1v27.6h-31.4V172.1z M212.4,240
	v-30.1h31.4V240H212.4z M254,240v-30.1h31.4V240H254z M295.6,240v-30.1H327V240H295.6z M337.2,240v-30.1h28.1L358,240H337.2z"/>
<path class="st3" d="M357.2,333.6H186.7v-10.2h170.5c10.5,0,19.1-8.6,19.1-19.1c0-10.5-8.6-19.1-19.1-19.1H202
	c-8.9,0-16.7-6-19-14.6l-37.1-137.8c-0.9-3.5-4.1-5.9-7.7-5.9h-4v-10.2h4c8.2,0,15.5,5.5,17.6,13.5l37.1,137.8c1.1,4.1,4.9,7,9.1,7
	h155.1c16.2,0,29.4,13.2,29.4,29.4C386.6,320.5,373.4,333.6,357.2,333.6z"/>
<path class="st4" d="M112.6,114c-4.2,0-7.7,3.4-7.7,7.7c0,4.2,3.4,7.7,7.7,7.7h21.6V114H112.6z"/>
<circle class="st5" cx="215.9" cy="359.8" r="17.7"/>
<circle class="st6" cx="215.9" cy="359.8" r="11.6"/>
<circle class="st7" cx="215.9" cy="359.8" r="4.5"/>
<circle class="st5" cx="348.9" cy="359.8" r="17.7"/>
<circle class="st6" cx="348.9" cy="359.8" r="11.6"/>
<circle class="st7" cx="348.9" cy="359.8" r="4.5"/>
</svg>
