<svg version="1.1"
	 xmlns="http://www.w3.org/2000/svg" xmlns:xlink="http://www.w3.org/1999/xlink" xmlns:a="http://ns.adobe.com/AdobeSVGViewerExtensions/3.0/"
	 x="0px" y="0px" width="1114.2px" height="954.7px" viewBox="0 0 1114.2 954.7" style="enable-background:new 0 0 1114.2 954.7;"
	 xml:space="preserve">
<style type="text/css">
	.st0{fill:#13120D;}
	.st1{fill:#FFFFFF;}
	.st2{fill-rule:evenodd;clip-rule:evenodd;fill:#EA5B0C;}
</style>
<defs>
</defs>
<g>
	<path class="st0" d="M1114.2,949.1c0,3.1-2.6,5.7-5.7,5.7H5.7c-3.1,0-5.7-2.6-5.7-5.7V308.4c0-3.1,2.2-6.9,5-8.4L550.4,1.1
		c2.7-1.5,7.2-1.5,10,0l549,299c2.7,1.5,5,5.3,5,8.4V949.1z"/>
</g>
<g>
	<path class="st1" d="M267.5,582.5c-1.1-4-2.5-6.5-4.2-7.6c-1.7-1.1-3.9-1.7-6.8-1.7h-41.9c-3.1,0-5.5,0.6-7.1,1.7
		c-1.7,1.1-2.9,3.7-3.8,7.6c0,0-51.1,211.6-51.5,213.4c-0.4,1.8-0.4,3-0.4,3.6c0,4.2,2.1,6.3,6.3,6.3h32.2c3.1,0,5.4-0.8,6.8-2.5
		c1.4-1.7,2.4-3.6,2.8-5.8L232.6,658c0.2-0.9,0.9-2.2,2.4-2.2c1.4,0,2,1.3,2.2,2.2l14.6,58.8c0.9,3.3,0.1,5-2.3,5h-20.7l-10.1,44.5
		h39.8c3.5,0,5.8,1.7,6.6,5l6.6,25.3c0.7,2.7,1.7,4.9,3.2,6.7c1.4,1.8,3.8,2.7,7.1,2.7h32.6c4.9,0,7.3-1.9,7.3-5.6
		c0-1.5-0.2-3-0.7-4.3L267.5,582.5z"/>
	<path class="st1" d="M952.5,599.5c-13.5-17.5-36.9-26.3-70.1-26.3h-60.5c-5.1,0-8.5,1.2-10.3,3.7c-0.9,1.3-1.3,4-1.3,8v209.1
		c0,6.2,1.2,8.9,3.7,10.6c1.3,0.9,4,1.3,8,1.3h25.9c4,0,6.8-0.3,8.8-2c2.8-2.4,2.7-6.5,2.7-10.2l0.2-127.5c0-0.2,0-0.4,0-0.5v-45.5
		c0-2.9,1.4-4.3,4.3-4.3H882c10.9,0,18.9,2.8,24.3,8.3c4.2,4.4,6.3,10.4,6.3,17.9c0,8-2.9,14.5-8.8,19.4c-5.9,5-13,7.5-21.4,7.5
		h-12.2l-0.1,43.2h15.6c23.9,0,43.3-5.7,58-17c14.7-11.3,22.1-28.3,22.1-50.9C965.8,625.9,961.3,611,952.5,599.5z"/>
	<path class="st1" d="M561.1,573.2l-38,0c-2.2,0-4.5,0.8-7,2.5c-2.4,1.7-3.7,4.2-3.7,7.5v212.4c0,3.8,0.9,6.4,2.7,8
		c1.8,1.6,4,2.3,6.6,2.3h28.4c3.3,0,6.7-0.4,8.6-2.3c1.9-1.9,2.3-4.9,2.3-8.2C561,792,561.1,573.2,561.1,573.2z"/>
	<g>
		<path class="st1" d="M388.5,584.8c0-4-0.7-6.9-2-8.8c-1.3-1.9-4.5-2.8-9.6-2.8h-25.9c-5.1,0-8.5,1.2-10.3,3.7
			c-0.9,1.3-1.3,4-1.3,8v209.4c0,5.1,1.2,8.5,3.7,10.3c1.3,0.9,4,1.3,8,1.3h25.9c4,0,6.9-0.7,8.8-2c1.9-1.3,2.8-4.5,2.8-9.6V584.8z"
			/>
		<path class="st1" d="M482.2,576c-1.3-1.9-4.5-2.8-9.6-2.8h-25.9c-5.1,0-8.5,1.2-10.3,3.7c-0.9,1.3-1.3,4-1.3,8v63.5
			c0,3.3-1,5.5-3,6.6c-0.4,0.2-1.2,0.3-2.3,0.3l-30.3,0l0,46.6h30.3c3.5,0,5.3,1.8,5.3,5.3v87.1c0,4,0.7,6.9,2,8.8
			c1.3,1.9,4.5,2.8,9.6,2.8h25.9c5.1,0,8.5-1.2,10.3-3.7c0.9-1.3,1.3-4,1.3-8V584.8C484.2,580.9,483.6,577.9,482.2,576z"/>
	</g>
	<path class="st2" d="M299.2,482.1c-0.9-12.2-8.2-22.2-20-25.2c10.2-4.4,20.9-20.1,15.8-35.2c-4.2-12.3-17.1-18-30-18.9
		c-2-0.1-3.9-0.2-5.9-0.2c-31.3,0-60.2,17.7-62.8,42.5c-1.5,13.8,8,19.3,18.1,19.3c0.2,0,0.4,0,0.6,0c-10.1-28,13.3-53.9,40.7-53.9
		c1.7,0,3.4,0.1,5.1,0.3c4.4,0.5,10.6,2.4,14.2,6.8c12.2,15-3.7,38.6-22.1,39.4c2.4-12.8,5.3-25.2,7.9-37.9
		c-8.9,0.7-16.9,2.3-25.8,3.2c-7.3,37-15.7,73.1-23.1,109.9c8.2,0,16.5,0,24.7,0c5.2-21.8,9.4-46.4,15-67.7c1.1-0.1,2.2-0.2,3.3-0.2
		c30.9,0,24.4,54.3,2.9,54.3c-0.4,0-0.8,0-1.3-0.1c-4.6-0.4-10.5-4.7-10.5-4.7s-4.7,19.9,15.3,21.6c0.7,0.1,1.4,0.1,2.1,0.1
		C285.5,535.3,301.1,506,299.2,482.1z"/>
	<path class="st2" d="M929.7,415.2c0,0-2.7,0-5.1,0c-3.8,14.8-18.3,21.2-27.6,21.2c-2.7,0-4.9-0.5-6.3-1.5c8.2-2.6,7-14.9-0.9-16.7
		c-0.9-0.2-1.8-0.3-2.6-0.3c-9.7,0-16.8,12.4-7.4,21.6c2.8,2.8,9,5.1,14.6,5.3c0.4,0,0.8,0,1.2,0c6.9,0,13.6-2.1,17.7-4.5
		C922.4,434.8,927.7,424,929.7,415.2z"/>
	<path class="st2" d="M626.6,527.8c5.9-26,12.3-55.4,17.6-82c-8.2,0-16.5,0-24.7,0c-0.5,2.3-1.6,6.8-1.6,6.8s-4.9-7.8-13.7-7.9
		c-0.1,0-0.2,0-0.3,0c-16.4,0-29.6,12.9-35.5,23.7c-2.3,1.2-9.2,3.7-13.9,3.7c-1,0-1.9-0.1-2.6-0.4c2.5-19.6-9.4-27-22.8-27
		c-9.8,0-20.5,3.9-26.9,10c-12.1,11.3-18.2,29.4-19.5,47.3c-5.2,6.2-14.1,15.1-25.2,16.3c-1.6,0.2-3.3,0.3-5,0.3
		c-2.8,0-5.5-0.4-7.6-1.9c-10.4-7.2,3.1-17.9,8.9-21.6c5.3-3.4,12.7-7.7,16.8-12.1c6.6-7,11.8-22.8,3.2-32.6
		c-3.3-3.8-8.6-5.7-14.2-6.3c-1.9-0.2-3.7-0.3-5.4-0.3c-23.3,0-29.8,17.5-37.2,33.9c2.8,0,5.6,0,8.4,0c3.7-7.1,7.9-17,16.8-17.9
		c0.6-0.1,1.2-0.1,1.7-0.1c5.1,0,8,2.7,8.3,7.5c0.8,17.1-25.4,20.5-33.7,33.7c-3.2,5.1-5.5,15.6-13.6,15.6c-0.8,0-1.7-0.1-2.7-0.3
		c-7.6-1.9-3.3-14.8-1.6-22.1c3.8-16.5,7.1-33.5,10-48.4c-3.7,0-7.4,0-11,0c-5.7,2.7-33,22.6-43.7,24.2c-1.7,0.3-3.3,0.3-4.9,0.3
		c-1.2,0-2.4,0-3.5,0c-4.1,0-7.4,0.4-8.4,4.5c-1.7,6.5,3.3,9.9,8.5,9.9c1.6,0,3.2-0.3,4.7-1c5.5,12.1-2.8,34.9-16.4,34.9
		c-0.7,0-1.3,0-2-0.2c-9.2-1.5-5-13.8-3.2-22.6c3.5-16.6,7.8-35,10.5-50c-7.9,0-15.8,0-23.7,0c-1.3,5.9-11.8,51.1-12.6,63.1
		c-1.2,17.1,10.8,24.2,24.7,24.2c27.5,0,47.2-28.8,34.7-56.8c6.6-3.2,14.4-7.3,18.9-10c-1.9,8.2-3.5,16.1-5.3,24.2
		c-1.8,8-4.9,16.9-4.2,25.8c0.9,11.5,10,16.4,19.8,16.4c9.2,0,19-4.3,23.3-11.7c2.1,8.9,15,12.3,25.9,12.3c1.4,0,2.8-0.1,4.1-0.2
		c16.5-1.4,29-14.2,35.8-21c1.9,13.8,12.6,20.8,26.8,20.8c1.7,0,3.5-0.1,5.3-0.3c23.9-2.7,34.4-30,36.8-52.1c0.1,0,0.1,0,0.2,0
		c5,0,13-3.5,13.3-3.9c-5.9,12.8-9.8,42.3,2.9,52.3c3.7,2.9,8.4,4,13.2,4c8.3,0,16.9-3.4,21.5-7.7c-0.3,1.7-1.1,5.1-1.4,6.8
		C609.3,530.2,617,528,626.6,527.8z M538.3,463.4c0,0-6.2,1.7-6.8,8.9c-0.5,5.6,2.4,8.4,5.7,8.6c-2.6,11.3-6.5,35.6-19.7,36.5
		c-0.3,0-0.7,0-1,0c-7.3,0-8.8-6.3-8.5-15.8c0.4-12.7,8.2-35,14.2-42.1c1.9-2.2,5.8-4.7,9.5-4.7c1.3,0,2.5,0.3,3.6,1
		C539.3,458.4,538.3,463.4,538.3,463.4z M593.2,515.8c-4.1,0-7.7-2.5-8.5-9c-2.1-17.1,7.7-41.7,16.3-48.4c1.2-0.9,3.3-1.7,4.7-2.1
		c1.2-0.3,2.2-0.4,3.1-0.4c10.1,0,5.1,16.9,3.1,26.6c-2,9.7-3.9,22.2-7.2,26.9C602.2,513.1,597.5,515.8,593.2,515.8z"/>
	<path class="st2" d="M929.2,515.2c-2,0.8-4.5,1.7-6.9,1.7c-1.9,0-3.6-0.6-4.7-2.5c-2.5-4.2,1.1-17.7,4.7-35
		c2.4-11.2,4.8-22.4,7.4-33.7c-8.4,0-16,0-24.4,0c-2.1,10.8-5.6,28.1-8.1,39.5c-4.2,18.9-8.6,30.7-17.9,30.7c-0.4,0-0.8,0-1.2-0.1
		c-6.3-0.7-4.2-9.2-3-14.8c2.6-12,7.3-32,11.4-55.3c-8.2,0-16.5,0-24.7,0c-2.9,14-9,45.6-11.1,53.5c-2,7.4-6,17.1-14.8,17.1
		c-0.5,0-1.1,0-1.7-0.1c-8.3-1.1-4.2-14.5-2.4-22.1c3.8-16.4,7.1-33.7,10-48.4c-3.7,0-7.4,0-11,0c-5.7,2.7-34.2,22.1-43.7,24.2
		c-2,0.4-4,0.5-5.9,0.5c-1,0-2,0-3,0c-3.9,0-7,0.4-8,4.2c-1.7,6.5,3.3,9.9,8.5,9.9c1.6,0,3.2-0.3,4.7-1c5.5,12.1-2.8,34.9-16.4,34.9
		c-0.6,0-1.3,0-2-0.2c-9.2-1.5-5-13.8-3.2-22.6c3.5-16.6,7.8-35,10.5-50c-7.9,0-15.8,0-23.7,0c-3.8,16.4-9.2,56.8-16.8,65.7
		c-1.9,2.2-5.4,4.9-9.3,4.9c-0.6,0-1.1,0-1.7-0.2c-7.7-1.5-4.3-13.8-2.8-20.1c4.2-18.3,7.5-33.6,11.2-50.3c-7.7,0-15.4,0-23.1,0
		c-3.2,13.8-5.4,22.6-8.4,34.2c-6.3-0.1-13.3-0.1-18.5-0.1c2-11.5,5-22.4,6.9-34c-8.1,0-16.1,0-24.2,0c-5.6,25.9-12,56.4-17.9,83
		c9.9,1,15.5,4.6,23.3,5.9c5.6-22.5,7.7-32.4,10.4-45c6.1,0,12.3,0,18.4,0c-3.9,16-8,36.2,6.3,41.8c3.4,1.3,6.6,1.9,9.6,1.9
		c11.4,0,20.2-8.2,25.1-15.6c1.7,10.7,13.7,15.2,23.7,15.2c27.3,0,47.4-28.7,34.7-56.8c4.8-2.4,15.4-8.2,19.2-10.8
		c-1.2,5.3-3.1,14-5.5,25c-1.8,8.1-4.9,16.9-4.2,25.8c0.9,11.5,10.3,16.9,20.2,16.9c0.4,0,0.9,0,1.3,0c12-0.6,19.1-8.3,22.8-14.9
		c0.4,3.7,2.1,7.7,4,9.6c3.6,3.8,8.1,5.4,12.9,5.4c11.3,0,23.7-8.6,27.1-15.9c-0.4,10.5,8.1,15.5,16.9,15.5
		C920.2,532.8,930.4,526.6,929.2,515.2z"/>
	<path class="st2" d="M738.3,538.4c0,0-7.4,5.9-12.9,7.8c-7.2,2.6-14.6,3.5-22,3.5c-10.4,0-20.6-1.9-30.3-4
		c-10.7-2.3-20.7-6.9-31-8.4c-4.1-0.6-8.2-0.9-12.2-0.9c-12.2,0-24.1,2.6-34,6.2c-8.3,3-18.7,7.7-22.1,16.8c-2,5.4-1.1,13,1.6,16.8
		c3.7,5.3,9.6,7.5,15.9,7.5c9.3,0,19.5-4.8,24.6-11.2c6-7.6,6.8-18.7,8.9-27.4c0.5,0,1,0,1.5,0c28.4,0,48.3,24.2,78,26.4
		c1.6,0.1,3.1,0.2,4.5,0.2C744,571.7,738.3,538.4,738.3,538.4z M588,569.7c-0.7,0-1.4-0.1-2.2-0.3c-1.5-0.4-3.5-2.6-3.7-5.3
		c-0.7-8.6,10.7-11.9,17.4-14.7C597.5,555,596.1,569.7,588,569.7z"/>
	<path class="st1" d="M640.8,574.4c-2-1.1-4.9-1.1-8.4-1.1h-4.1c-1.3,3-2.9,6-5,8.7c-7.1,8.9-20,14.8-32.1,14.8
		c-7.5,0-14.1-2.3-19.1-6.6l0,26.9h63.9c5.1,0,7.8-2.7,7.8-8v-27.9C643.7,577.9,642.8,575.5,640.8,574.4z"/>
	<path class="st1" d="M792.3,795.9l-53.8-213.4c-0.8-2.9-1.7-5-2.8-6.4c-6.8,5.6-15.8,8.5-27,8.5c-1.7,0-3.4-0.1-5.2-0.2
		c-10-0.7-18.8-3.5-27-7.1c-0.7,1.3-1.3,3-1.8,5.2c0,0-50.4,209.2-51,211.8c-0.6,2.6-0.8,4.8-0.8,5.2c0,4.2,2.1,6.3,6.3,6.3h32.2
		c3.1,0,5.4-0.8,6.8-2.5c1.4-1.7,2.4-3.6,2.8-5.8l6.3-26.3c0.1-0.6,0.3-1.1,0.5-1.5l13.3-55l12.5-56.8c0.2-0.9,0.8-2.4,2.4-2.4
		c1.3,0,2,1.1,2.3,2.4l14.6,58.8c0.9,3.3,0.1,5-2.3,5l-20.1,0l-10.9,44.6h39.9c3.5,0,5.8,1.7,6.6,5l6.6,25.3
		c0.7,2.7,1.7,4.9,3.2,6.7c1.4,1.8,3.8,2.7,7.1,2.7h32.6c4.9,0,7.3-1.9,7.3-5.6C793,798.7,792.8,797.2,792.3,795.9z"/>
</g>
</svg>
